<svg xmlns="http://www.w3.org/2000/svg" width="3000" height="3000" viewBox="0 0 3000 3000">
  <defs>
    <style>
      .cls-1 {
        fill: #da0037;
        fill-rule: evenodd;
      }
    </style>
  </defs>
  <path id="S" class="cls-1" d="M1617.5,2084.86q102.075-30.21,172.91-85.42,70.815-55.2,109.37-132.28,38.535-77.085,38.55-172.92,0-152.1-101.05-242.72t-309.36-134.38l-218.75-43.75q-137.505-29.16-195.84-83.33t-58.33-150q0-79.167,42.7-138.544t120.85-92.7q78.1-33.328,184.37-33.328,104.16,0,191.66,26.047t170.84,84.359q31.245,20.861,57.28,18.766t43.75-18.75q17.73-16.663,22.93-41.672,5.19-24.984-3.13-51.047-8.34-26.038-33.33-44.8-91.68-68.742-205.22-104.156-113.52-35.413-242.7-35.422-120.84,0-219.8,31.25-98.955,31.266-171.87,89.594t-112.5,138.531q-39.585,80.2-39.578,178.122,0,160.44,96.875,256.25,96.863,95.835,292.7,137.5l220.84,45.83q147.9,29.175,210.41,80.22,62.475,51.045,62.5,140.63,0,108.315-86.46,175-86.46,66.645-269.79,66.65-127.08,0-232.3-29.15T955,1825.49q-29.179-20.85-54.172-16.68a74.081,74.081,0,0,0-42.7,22.93,89.322,89.322,0,0,0-22.922,44.79q-5.2,26.04,6.25,53.13T880,1975.49q64.571,45.84,145.83,77.07,81.225,31.275,172.92,46.88a1128.294,1128.294,0,0,0,189.58,15.62Q1515.41,2115.06,1617.5,2084.86Z"/>
</svg>
